<svg xmlns="http://www.w3.org/2000/svg" xmlns:xlink="http://www.w3.org/1999/xlink" width="1920" height="1080" viewBox="0 0 1920 1080">
  <defs>
    <clipPath id="clip-Web_1920_2">
      <rect width="1920" height="1080"/>
    </clipPath>
  </defs>
  <g id="Web_1920_2" data-name="Web 1920 – 2" clip-path="url(#clip-Web_1920_2)">
    <rect width="1920" height="1080" fill="#fff"/>
    <path id="Path_2" data-name="Path 2" d="M3948.485,887.879S4091.853,538.952,4349.86,531.7s393.014-280.289,563.809-281.72,454.084,256.879,618.8,285.5,284.792-381.409,331-387.47" transform="translate(-3857.609 -741.879) rotate(7)" fill="none" stroke="rgba(57,80,255,0.5)" stroke-width="3"/>
    <path id="Path_4" data-name="Path 4" d="M0,651.515S83.695,446.521,228.391,350.309,535.542,362,692.782,293.289,961.18,72.266,1074.271,58.38,1509.213,376.311,1657.7,294.493,1953.786,6.061,2000,0" transform="translate(31.639 -91.078) rotate(7)" fill="none" stroke="#fff58c" stroke-width="3"/>
    <path id="Path_5" data-name="Path 5" d="M0,0S143.368,348.927,401.375,356.182,794.389,636.47,965.185,637.9s454.084-256.879,618.8-285.5,284.792,381.409,331,387.47" transform="translate(1965.731 639.581) rotate(173)" fill="none" stroke="rgba(255,57,57,0.5)" stroke-width="3"/>
    <path id="Path_6" data-name="Path 6" d="M0,0S83.695,204.993,228.391,301.206s307.15-11.686,464.391,57.02,268.4,221.024,381.488,234.909S1509.213,275.2,1657.7,357.022,1953.786,645.454,2000,651.515" transform="translate(1966.73 574.581) rotate(173)" fill="none" stroke="#afff8c" stroke-width="3"/>
  </g>
</svg>
