<svg height="512pt" viewBox="0 0 512 512" width="512pt" xmlns="http://www.w3.org/2000/svg"><path d="m512 256c0 34.125-6.675781 66.707031-18.808594 96.476562-26.863281 65.972657-80.457031 118.230469-147.332031 143.296876-11.042969 4.148437-22.453125 7.542968-34.167969 10.144531-17.929687 3.980469-36.558594 6.082031-55.691406 6.082031-12.445312 0-24.691406-.886719-36.664062-2.601562-3.15625-.449219-6.292969-.960938-9.40625-1.527344-4.617188-.84375-9.195313-1.804688-13.71875-2.894532-3.5-.835937-6.96875-1.742187-10.40625-2.726562-.167969-.039062-.347657-.09375-.523438-.144531-3.992188-1.148438-7.941406-2.382813-11.847656-3.71875-9.929688-3.375-19.582032-7.347657-28.914063-11.871094-6.21875-3.011719-12.296875-6.257813-18.222656-9.761719-25.421875-14.960937-48.023437-34.199218-66.84375-56.726562-37.125-44.417969-59.453125-101.617188-59.453125-164.027344 0-141.386719 114.613281-256 256-256s256 114.613281 256 256zm0 0" fill="#66baed"/><path d="m311.691406 403.175781v102.742188c-17.929687 3.980469-36.558594 6.082031-55.691406 6.082031-78.972656 0-149.585938-35.757812-196.546875-91.972656v-16.851563c0-44.011719 29.886719-81.042969 70.480469-91.902343 1.484375-.394532 2.976562-.761719 4.492187-1.085938 4.035157-.875 8.171875-1.484375 12.382813-1.828125 2.570312-.207031 5.160156-.3125 7.785156-.3125h61.949219c6.929687 0 13.679687.730469 20.179687 2.140625.375.074219.75.15625 1.117188.242188 1.097656.25 2.195312.523437 3.269531.8125.03125.011718.054687.011718.085937.023437 10.707032 2.863281 20.675782 7.554687 29.539063 13.707031 24.753906 17.179688 40.957031 45.800782 40.957031 78.203125zm0 0" fill="#3d4159"/><path d="m241.421875 310.1875-.226563 1.078125-32.96875 153.335937c-7.460937.660157-15.023437.996094-22.652343.996094-7.648438 0-15.203125-.335937-22.675781-.996094l-32.964844-153.328124-.230469-1.085938zm0 0" fill="#dde8ed"/><path d="m211.109375 342.371094-25.539063 40.960937-25.539062-40.960937" fill="#f74f4f"/><path d="m209.148438 464.507812c-4.285157.398438-8.601563 21.566407-12.9375 40.46875-3.5-.835937-6.96875-1.742187-10.40625-2.726562-.167969-.039062-.347657-.09375-.523438-.144531-3.992188-1.148438-7.941406-2.382813-11.847656-3.71875-3.847656-16.90625-7.660156-33.523438-11.441406-33.867188l23.582031-91.847656zm0 0" fill="#f74f4f"/><path d="m185.5625 346.992188-42.828125 23.800781-13.03125-60.601563 26.613281-15.675781" fill="#bfd5de"/><path d="m185.5625 346.992188 42.832031 23.800781 13.027344-60.601563-26.613281-15.675781" fill="#bfd5de"/><path d="m219.511719 271.402344v41.652344c0 15.25-10.054688 28.140624-23.90625 32.421874-3.167969.984376-6.550781 1.515626-10.042969 1.515626-18.746094 0-33.9375-15.191407-33.9375-33.9375v-41.652344zm0 0" fill="#eab599"/><path d="m219.511719 310.417969v2.636719c0 15.25-10.054688 28.140624-23.90625 32.421874-12.496094-3.839843-21.890625-14.707031-23.625-28 2.265625.136719 4.546875.207032 6.835937.207032 6.421875 0 12.714844-.507813 18.847656-1.515625 7.558594-1.214844 14.859376-3.160157 21.847657-5.75zm0 0" fill="#f6caae"/><path d="m92.457031 203.132812c0 15.710938-11.476562 28.742188-26.507812 31.160157-1.640625.265625-3.332031.40625-5.054688.40625-17.4375 0-31.566406-14.128907-31.566406-31.566407s14.128906-31.566406 31.566406-31.566406c1.722657 0 3.414063.140625 5.054688.40625 15.03125 2.417969 26.507812 15.445313 26.507812 31.160156zm0 0" fill="#f6caae"/><path d="m92.457031 203.132812c0 15.710938-11.476562 28.742188-26.507812 31.160157-2.730469-9.929688-4.1875-20.378907-4.1875-31.160157 0-10.785156 1.457031-21.234374 4.1875-31.160156 15.03125 2.417969 26.507812 15.445313 26.507812 31.160156zm0 0" fill="#eab599"/><path d="m72.175781 203.132812c0 6.230469-5.050781 11.28125-11.28125 11.28125s-11.28125-5.050781-11.28125-11.28125c0-6.230468 5.050781-11.28125 11.28125-11.28125s11.28125 5.050782 11.28125 11.28125zm0 0" fill="#eab599"/><path d="m278.675781 203.132812c0 15.710938 11.476563 28.742188 26.507813 31.160157 1.644531.265625 3.332031.40625 5.058594.40625 17.4375 0 31.5625-14.128907 31.5625-31.566407s-14.125-31.566406-31.5625-31.566406c-1.726563 0-3.414063.140625-5.058594.40625-15.03125 2.417969-26.507813 15.445313-26.507813 31.160156zm0 0" fill="#f6caae"/><path d="m278.675781 203.132812c0 15.710938 11.476563 28.742188 26.507813 31.160157 2.730468-9.929688 4.191406-20.378907 4.191406-31.160157 0-10.785156-1.460938-21.234374-4.191406-31.160156-15.03125 2.417969-26.507813 15.445313-26.507813 31.160156zm0 0" fill="#eab599"/><path d="m303.011719 141.636719v44.722656c0 58.441406-42.695313 106.925781-98.597657 115.921875-.1875.03125-.386718.0625-.574218.09375-5.945313.949219-12.046875 1.421875-18.277344 1.421875-64.855469 0-117.433594-52.582031-117.433594-117.4375v-44.722656c0-13.65625 2.328125-26.78125 6.632813-38.972657 16.0625-45.703124 59.613281-78.472656 110.800781-78.472656h.011719c6.21875 0 12.328125.480469 18.285156 1.421875 56.175781 8.777344 99.152344 57.386719 99.152344 116.023438zm0 0" fill="#eab599"/><path d="m321.523438 203.132812c0 6.230469-5.050782 11.28125-11.28125 11.28125-6.230469 0-11.285157-5.050781-11.285157-11.28125 0-6.230468 5.054688-11.28125 11.285157-11.28125 6.230468 0 11.28125 5.050782 11.28125 11.28125zm0 0" fill="#eab599"/><path d="m303.011719 141.636719v44.722656c0 58.441406-42.695313 106.925781-98.597657 115.921875-.1875.03125-.386718.0625-.574218.09375-56.175782-8.777344-99.140625-57.386719-99.140625-116.015625v-44.722656c0-58.636719 42.976562-107.246094 99.160156-116.023438 56.175781 8.777344 99.152344 57.386719 99.152344 116.023438zm0 0" fill="#f6caae"/><path d="m160.558594 179.519531c0 7.359375-5.964844 13.324219-13.324219 13.324219s-13.324219-5.964844-13.324219-13.324219 5.964844-13.320312 13.324219-13.320312 13.324219 5.960937 13.324219 13.320312zm0 0" fill="#3d4159"/><path d="m237.226562 179.519531c0 7.359375-5.964843 13.324219-13.324218 13.324219-7.355469 0-13.320313-5.964844-13.320313-13.324219s5.964844-13.320312 13.320313-13.320312c7.359375 0 13.324218 5.960937 13.324218 13.320312zm0 0" fill="#3d4159"/><path d="m157.839844 177.167969c0 3.152343-2.554688 5.710937-5.707032 5.710937-3.152343 0-5.710937-2.558594-5.710937-5.710937 0-3.152344 2.558594-5.707031 5.710937-5.707031 3.152344 0 5.707032 2.554687 5.707032 5.707031zm0 0" fill="#fff"/><path d="m235.164062 177.167969c0 3.152343-2.558593 5.710937-5.710937 5.710937s-5.707031-2.558594-5.707031-5.710937c0-3.152344 2.554687-5.707031 5.707031-5.707031s5.710937 2.554687 5.710937 5.707031zm0 0" fill="#fff"/><path d="m198.890625 207.839844h-26.644531c-3.175782 0-5.746094-2.574219-5.746094-5.75 0-3.171875 2.570312-5.746094 5.746094-5.746094h26.644531c3.175781 0 5.746094 2.574219 5.746094 5.746094 0 3.175781-2.570313 5.75-5.746094 5.75zm0 0" fill="#eab599"/><path d="m185.570312 244.199219c-9.835937 0-19.667968-2.464844-28.632812-7.394531-2.53125-1.386719-3.453125-4.566407-2.0625-7.09375 1.390625-2.527344 4.566406-3.449219 7.09375-2.0625 14.777344 8.125 32.421875 8.125 47.199219 0 2.523437-1.386719 5.703125-.464844 7.09375 2.0625 1.390625 2.527343.46875 5.707031-2.0625 7.09375-8.960938 4.929687-18.796875 7.394531-28.628907 7.394531zm0 0" fill="#eab599"/><path d="m303.011719 101.050781v45.8125h-21.859375v-35.875l-157.78125-29.320312-33.382813-6.207031v71.402343h-21.859375v-45.8125c0-52.222656 42.328125-94.550781 94.539063-94.550781h45.800781c1.242188 0 2.484375.019531 3.730469.082031 50.476562 1.941407 90.8125 43.488281 90.8125 94.46875zm0 0" fill="#e8c934"/><path d="m303.011719 101.050781v45.8125h-21.859375v-35.875l-157.78125-29.320312c8.695312-41.753907 44.921875-73.394531 88.828125-75.085938 50.476562 1.941407 90.8125 43.488281 90.8125 94.46875zm0 0" fill="#ffe152"/><path d="m129.703125 304.964844 55.578125 197.140625c-14.128906-4.042969-27.753906-9.289063-40.761719-15.589844l-30.019531-94.542969h13.582031l-27.6875-72.222656zm0 0" fill="#2a2f4f"/><path d="m243.042969 391.972656h13.582031l-37.289062 117.425782c-11.433594-1.640626-22.632813-4.035157-33.53125-7.148438l55.617187-197.285156 29.3125 14.785156zm0 0" fill="#2a2f4f"/><path d="m493.191406 299.121094v53.355468c-26.863281 65.972657-80.457031 118.230469-147.332031 143.296876-11.042969 4.148437-22.453125 7.542968-34.167969 10.144531-17.929687 3.980469-36.558594 6.082031-55.691406 6.082031l-46.070312-5.222656v-207.65625c0-14.09375 11.433593-25.515625 25.515624-25.515625h232.230469c14.09375 0 25.515625 11.421875 25.515625 25.515625zm0 0" fill="#d8d5d0"/><path d="m345.859375 476.753906v19.019532c-11.042969 4.148437-22.453125 7.542968-34.167969 10.144531-17.929687 3.980469-36.558594 6.082031-55.691406 6.082031-12.445312 0-24.691406-.886719-36.664062-2.601562-7.828126-1.117188-15.539063-2.601563-23.125-4.421876-3.5-.835937-6.96875-1.742187-10.40625-2.726562-.167969-.039062-.347657-.09375-.523438-.144531-3.992188-1.148438-7.941406-2.382813-11.847656-3.71875-9.929688-3.375-19.582032-7.347657-28.914063-11.871094-6.21875-3.011719-12.296875-6.257813-18.222656-9.761719zm0 0" fill="#d8d5d0"/><path d="m493.191406 299.121094v53.355468c-26.863281 65.972657-80.457031 118.230469-147.332031 143.296876-11.042969 4.148437-22.453125 7.542968-34.167969 10.144531-17.929687 3.980469-36.558594 6.082031-55.691406 6.082031h-31.441406v-212.878906c0-14.09375 11.429687-25.515625 25.515625-25.515625h217.601562c14.09375 0 25.515625 11.421875 25.515625 25.515625zm0 0" fill="#f2f0ec"/><path d="m384.996094 392.117188c0 14.429687-11.695313 26.125-26.121094 26.125s-26.121094-11.695313-26.121094-26.125c0-14.425782 11.695313-26.121094 26.121094-26.121094s26.121094 11.695312 26.121094 26.121094zm0 0" fill="#ffe152"/><path d="m280.09375 23.46875h231.902344v174.316406h-231.902344zm0 0" fill="#dde8ed"/><path d="m392.613281 186.890625-24.902343 59.144531 108.949218-62.257812zm0 0" fill="#dde8ed"/><g fill="#3d4159"><path d="m374.773438 110.628906c0 7.101563-5.757813 12.859375-12.859376 12.859375-7.105468 0-12.863281-5.757812-12.863281-12.859375 0-7.105468 5.757813-12.863281 12.863281-12.863281 7.101563 0 12.859376 5.757813 12.859376 12.863281zm0 0"/><path d="m408.90625 110.628906c0 7.101563-5.757812 12.859375-12.863281 12.859375-7.101563 0-12.859375-5.757812-12.859375-12.859375 0-7.105468 5.757812-12.863281 12.859375-12.863281 7.105469 0 12.863281 5.757813 12.863281 12.863281zm0 0"/><path d="m443.035156 110.628906c0 7.101563-5.757812 12.859375-12.859375 12.859375-7.101562 0-12.859375-5.757812-12.859375-12.859375 0-7.105468 5.757813-12.863281 12.859375-12.863281 7.101563 0 12.859375 5.757813 12.859375 12.863281zm0 0"/></g></svg>