<svg height="496pt" viewBox="0 0 496 496" width="496pt" xmlns="http://www.w3.org/2000/svg"><path d="m312 416v16l-9.121094 3.039062c-1.4375 7.28125-4.320312 14-8.238281 20l4.238281 8.5625-11.277344 11.277344-8.5625-4.238281c-6 3.917969-12.71875 6.800781-20 8.238281l-3.039062 9.121094h-16l-3.039062-9.121094c-7.28125-1.4375-14-4.320312-20-8.238281l-8.5625 4.238281-11.277344-11.277344 4.238281-8.5625c-3.917969-6-6.800781-12.71875-8.238281-20l-9.121094-3.039062v-16l9.121094-3.039062c1.4375-7.28125 4.320312-14 8.238281-20l-4.238281-8.5625 11.277344-11.277344 8.5625 4.238281c6-3.917969 12.71875-6.800781 20-8.238281l3.039062-9.121094h16l3.039062 9.121094c7.28125 1.4375 14 4.320312 20 8.238281l8.5625-4.238281 11.277344 11.277344-4.238281 8.5625c3.917969 6 6.800781 12.71875 8.238281 20zm0 0" fill="#fcd770"/><path d="m272 424c0 13.253906-10.746094 24-24 24s-24-10.746094-24-24 10.746094-24 24-24 24 10.746094 24 24zm0 0" fill="#ffc729"/><path d="m325.441406 84.320312c-1.921875-7.519531-4.882812-14.640624-8.722656-21.121093l10.480469-15.757813-22.640625-22.640625-15.757813 10.480469c-6.480469-3.839844-13.601562-6.800781-21.121093-8.722656l-3.679688-18.558594h-32l-3.679688 18.558594c-7.519531 1.921875-14.640624 4.882812-21.121093 8.722656l-15.757813-10.480469-22.640625 22.640625 10.480469 15.757813c-3.839844 6.480469-6.800781 13.601562-8.722656 21.121093l-18.558594 3.679688v32l18.558594 3.679688c1.601562 6.160156 3.839844 12.082031 6.800781 17.601562l38.640625 2.71875 24.28125-29.984375-39.160156.0625c-.722656-3.277344-1.121094-6.558594-1.121094-10.078125 0-26.480469 21.519531-48 48-48s48 21.519531 48 48c0 3.28125-.320312 6.558594-.960938 9.679688l-.320312.242187-39.023438.0625 24.304688 30.015625 38.238281-3.121094c3.921875-6.480468 5.28125-9.679687 7.203125-17.199218l18.558594-3.679688v-32zm0 0" fill="#fcd770"/><path d="m40 232h-32v-59.199219c0-11.921875 8.800781-22.082031 20.640625-23.761719l35.359375-5.039062s5.441406 10.960938 16.398438 14.71875h15.203124c10.957032-3.757812 16.398438-14.71875 16.398438-14.71875l56 8 7.519531-8.640625 22.960938 30.5625-9.679688 12.078125c-3.039062 3.761719-7.601562 6-12.480469 6h-40.320312v80h-96zm0 0" fill="#ccd1d9"/><path d="m456 232v40h-96v-80h-40.320312c-4.878907 0-9.441407-2.238281-12.480469-6l-9.679688-12.078125 22.960938-30.5625 7.519531 8.640625 56-8s5.441406 10.960938 16.398438 14.71875h15.203124c10.957032-3.757812 16.398438-14.71875 16.398438-14.71875l35.359375 5.039062c11.839844 1.679688 20.640625 11.839844 20.640625 23.761719v59.199219zm0 0" fill="#fcd770"/><path d="m456 272v216h-48v-216zm0 0" fill="#b27946"/><path d="m360 272h48v216h-48zm0 0" fill="#b27946"/><path d="m88 272h48v216h-48zm0 0" fill="#b27946"/><path d="m88 272v216h-48v-216zm0 0" fill="#b27946"/><path d="m488 216v80c0 8.800781-7.199219 16-16 16-4.398438 0-8.398438-1.761719-11.28125-4.71875-2.957031-2.882812-4.71875-6.882812-4.71875-11.28125v-80zm0 0" fill="#f0d0b4"/><path d="m40 272v24c0 4.398438-1.761719 8.398438-4.71875 11.28125-2.882812 2.957031-6.882812 4.71875-11.28125 4.71875-8.800781 0-16-7.199219-16-16v-80h32zm0 0" fill="#f0d0b4"/><path d="m416 160 8 64-16 16-16-16 8-64 .398438-1.28125c2.242187.800781 4.800781 1.28125 7.601562 1.28125s5.359375-.480469 7.601562-1.28125zm0 0" fill="#3bafda"/><path d="m96 160 8 64-16 16-16-16 8-64 .398438-1.28125c2.242187.800781 4.800781 1.28125 7.601562 1.28125s5.359375-.480469 7.601562-1.28125zm0 0" fill="#ef7385"/><g fill="#f0d0b4"><path d="m448 72v16c0 13.039062-6.320312 24.71875-16 32-6.640625 5.039062-14.960938 8-24 8s-17.359375-2.960938-24-8c-9.679688-7.28125-16-18.960938-16-32v-16c0-11.039062 4.480469-21.039062 11.679688-28.320312 7.28125-7.199219 17.28125-11.679688 28.320312-11.679688 22.078125 0 40 17.921875 40 40zm0 0"/><path d="m432 120v24s-5.441406 10.960938-16.398438 14.71875c-2.242187.800781-4.800781 1.28125-7.601562 1.28125s-5.359375-.480469-7.601562-1.28125c-10.957032-3.757812-16.398438-14.71875-16.398438-14.71875v-24c6.640625 5.039062 14.960938 8 24 8s17.359375-2.960938 24-8zm0 0"/><path d="m320.480469 143.359375-22.960938 30.5625-45.917969-57.363281c-2.320312-2.957032-3.601562-6.636719-3.601562-10.320313v-1.757812c0-4.558594 1.839844-8.640625 4.800781-11.679688 3.039063-2.960937 7.121094-4.800781 11.679688-4.800781 4.800781 0 9.28125 2.078125 12.480469 5.601562l17.757812 20.320313 23.519531 26.957031zm0 0"/><path d="m177.359375 141.28125 23.761719-27.121094v-.082031l17.917968-20.476563c3.199219-3.523437 7.679688-5.601562 12.480469-5.601562 4.558594 0 8.640625 1.839844 11.679688 4.800781 2.960937 3.039063 4.800781 7.121094 4.800781 11.679688v1.757812c0 3.683594-1.28125 7.363281-3.601562 10.320313l-45.917969 57.363281-22.960938-30.5625zm0 0"/><path d="m128 72v16c0 13.039062-6.320312 24.71875-16 32-6.640625 5.039062-14.960938 8-24 8s-17.359375-2.960938-24-8c-9.679688-7.28125-16-18.960938-16-32v-16c0-22.078125 17.921875-40 40-40 11.039062 0 21.039062 4.480469 28.320312 11.679688 7.199219 7.28125 11.679688 17.28125 11.679688 28.320312zm0 0"/><path d="m112 120v24s-5.441406 10.960938-16.398438 14.71875c-2.242187.800781-4.800781 1.28125-7.601562 1.28125s-5.359375-.480469-7.601562-1.28125c-10.957032-3.757812-16.398438-14.71875-16.398438-14.71875v-24c6.640625 5.039062 14.960938 8 24 8s17.359375-2.960938 24-8zm0 0"/></g><path d="m468.519531 141.136719-28.519531-4.074219v-13.382812c9.792969-8.792969 16-21.503907 16-35.679688v-16c0-26.472656-21.527344-48-48-48s-48 21.527344-48 48v16c0 14.167969 6.207031 26.878906 16 35.679688v13.382812l-44.832031 6.410156-2.976563-3.402344c1.382813-3.078124 2.59375-6.238281 3.617188-9.46875l20.191406-4.042968v-45.117188l-20.191406-4.042968c-1.511719-4.78125-3.441406-9.414063-5.746094-13.855469l11.433594-17.136719-31.894532-31.894531-17.144531 11.425781c-4.441406-2.304688-9.074219-4.21875-13.847656-5.738281l-4.058594-20.199219h-45.109375l-4.050781 20.191406c-4.78125 1.519532-9.414063 3.441406-13.847656 5.738282l-17.144531-11.425782-31.894532 31.894532 11.433594 17.136718c-2.304688 4.441406-4.226562 9.074219-5.746094 13.855469l-20.191406 4.050781v45.117188l20.191406 4.042968c1.023438 3.230469 2.234375 6.390626 3.617188 9.460938l-2.976563 3.402344-44.832031-6.402344v-13.382812c9.792969-8.792969 16-21.503907 16-35.679688v-16c0-26.472656-21.527344-48-48-48s-48 21.527344-48 48v16c0 14.167969 6.207031 26.878906 16 35.679688v13.382812l-28.519531 4.074219c-15.664063 2.238281-27.480469 15.863281-27.480469 31.679687v123.183594c0 13.230469 10.769531 24 24 24 2.816406 0 5.488281-.574219 8-1.472656v177.472656h112v-296h32.3125c7.320312 0 14.152344-3.28125 18.742188-9.007812l52.945312-66.183594 52.953125 66.191406c4.582031 5.71875 11.414063 9 18.734375 9h32.3125v296h112v-177.472656c2.511719.898437 5.183594 1.472656 8 1.472656 13.230469 0 24-10.769531 24-24v-123.183594c0-15.816406-11.816406-29.441406-27.480469-31.679687zm-52.945312 79.976562-7.574219 7.574219-7.574219-7.574219 6.644531-53.167969c.3125.007813.609376.054688.929688.054688s.617188-.046875.929688-.054688zm-39.574219-149.113281c0-17.648438 14.351562-32 32-32s32 14.351562 32 32v16c0 17.648438-14.351562 32-32 32s-32-14.351562-32-32zm32 64c5.617188 0 10.984375-1.023438 16-2.800781v8.59375c-1.984375 3.0625-7.496094 10.207031-16 10.207031-8.519531 0-14.039062-7.175781-16-10.199219v-8.601562c5.015625 1.777343 10.382812 2.800781 16 2.800781zm-229.703125-14.265625-1.242187-4.878906-17.054688-3.414063v-18.882812l17.054688-3.414063 1.242187-4.878906c1.710937-6.707031 4.351563-13.097656 7.871094-19l2.574219-4.335937-9.644532-14.480469 13.351563-13.351563 14.488281 9.65625 4.328125-2.585937c5.894531-3.511719 12.285156-6.160157 18.992187-7.863281l4.886719-1.242188 3.40625-17.0625h18.890625l3.40625 17.054688 4.886719 1.242187c6.707031 1.703125 13.097656 4.351563 18.992187 7.863281l4.328126 2.582032 14.488281-9.652344 13.351562 13.351562-9.648437 14.480469 2.578125 4.335937c3.519531 5.902344 6.167969 12.292969 7.871093 19l1.242188 4.878907 17.0625 3.421875v18.882812l-17.054688 3.414063-1.242187 4.878906c-.398437 1.578125-1.023437 3.066406-1.527344 4.601563l-12.777343-14.601563c.355468-2.558594.601562-5.132813.601562-7.734375 0-30.878906-25.128906-56-56-56s-56 25.121094-56 56c0 2.59375.246094 5.175781.601562 7.734375l-12.777343 14.601563c-.503907-1.535157-1.128907-3.023438-1.527344-4.601563zm69.703125-35.222656c-4.367188-4.007813-10.128906-6.511719-16.503906-6.511719-7.070313 0-13.792969 3.046875-18.449219 8.367188l-2.910156 3.320312c5.230469-16.007812 20.128906-27.6875 37.863281-27.6875s32.640625 11.679688 37.863281 27.695312l-2.910156-3.328124c-4.65625-5.320313-11.378906-8.367188-18.449219-8.367188-6.375 0-12.136718 2.503906-16.503906 6.511719zm-152.425781 134.601562-7.574219 7.574219-7.574219-7.574219 6.644531-53.167969c.3125.007813.609376.054688.929688.054688s.617188-.046875.929688-.054688zm-39.574219-149.113281c0-17.648438 14.351562-32 32-32s32 14.351562 32 32v16c0 17.648438-14.351562 32-32 32s-32-14.351562-32-32zm32 64c5.617188 0 10.984375-1.023438 16-2.800781v8.59375c-1.984375 3.0625-7.496094 10.207031-16 10.207031s-14.015625-7.144531-16-10.207031v-8.59375c5.015625 1.777343 10.382812 2.800781 16 2.800781zm-40 160v-16h32v200h-32zm48 184v-200h32v200zm142.136719-368.472656-55.570313 69.464844c-1.535156 1.910156-3.8125 3.007812-6.253906 3.007812h-48.3125v80h-80v-80h-16v112c0 4.40625-3.585938 8-8 8s-8-3.59375-8-8v-123.183594c0-7.914062 5.902344-14.71875 13.742188-15.839844l30.3125-4.328124c2.425781 3.273437 6.234374 7.496093 11.464843 10.679687l-7.945312 63.566406 24.425781 24.417969 24.425781-24.425781-7.945312-63.566407c5.238281-3.191406 9.046875-7.410156 11.464843-10.679687l55.214844 7.886719 53.929688-61.632813c1.605468-1.839843 3.941406-2.902343 6.398437-2.902343 4.6875.007812 8.511719 3.824218 8.511719 8.511718v1.695313c0 1.9375-.664062 3.824219-1.863281 5.328125zm129.863281 168.472656h32v200h-32zm80 200h-32v-200h32zm32-184c0 4.40625-3.585938 8-8 8s-8-3.59375-8-8v-112h-16v80h-80v-80h-48.3125c-2.441406 0-4.71875-1.097656-6.238281-3l-55.578125-69.472656c-1.207032-1.503906-1.871094-3.390625-1.871094-5.320313v-1.695312c0-4.695313 3.824219-8.511719 8.503906-8.511719 2.457032 0 4.792969 1.054688 6.398438 2.902344l53.929687 61.625 55.214844-7.886719c2.425781 3.269531 6.234375 7.496094 11.464844 10.679687l-7.945313 63.566407 24.433594 24.425781 24.425781-24.425781-7.945312-63.566407c5.238281-3.191406 9.046875-7.410156 11.464843-10.679687l30.3125 4.328125c7.832032 1.121094 13.742188 7.933594 13.742188 15.839844zm0 0"/><path d="m240 192h16v16h-16zm0 0"/><path d="m224 208h16v16h-16zm0 0"/><path d="m240 224h16v16h-16zm0 0"/><path d="m256 208h16v16h-16zm0 0"/><path d="m240 256h16v16h-16zm0 0"/><path d="m240 288h16v16h-16zm0 0"/><path d="m240 320h16v16h-16zm0 0"/><path d="m303.761719 392.59375 4.886719-9.769531-19.472657-19.472657-9.777343 4.886719c-4.488282-2.535156-9.230469-4.503906-14.183594-5.886719l-3.445313-10.351562h-27.53125l-3.453125 10.351562c-4.953125 1.375-9.707031 3.34375-14.183594 5.886719l-9.777343-4.886719-19.472657 19.472657 4.886719 9.769531c-2.535156 4.484375-4.503906 9.230469-5.878906 14.183594l-10.359375 3.453125v27.53125l10.359375 3.453125c1.375 4.953125 3.34375 9.695312 5.878906 14.183594l-4.886719 9.769531 19.472657 19.472656 9.777343-4.886719c4.488282 2.535156 9.230469 4.503906 14.183594 5.886719l3.445313 10.359375h27.53125l3.453125-10.351562c4.953125-1.375 9.707031-3.34375 14.183594-5.886719l9.777343 4.886719 19.472657-19.472657-4.886719-9.769531c2.535156-4.484375 4.503906-9.230469 5.878906-14.183594l10.359375-3.453125v-27.53125l-10.359375-3.453125c-1.375-4.953125-3.34375-9.707031-5.878906-14.191406zm.238281 33.636719-8.039062 2.679687-.90625 4.554688c-1.222657 6.128906-3.605469 11.878906-7.09375 17.109375l-2.578126 3.867187 3.800782 7.574219-3.160156 3.160156-7.589844-3.792969-3.859375 2.578126c-5.214844 3.488281-10.972657 5.871093-17.109375 7.09375l-4.554688.914062-2.679687 8.03125h-4.46875l-2.671875-8.03125-4.554688-.914062c-6.136718-1.222657-11.886718-3.613282-17.109375-7.09375l-3.859375-2.578126-7.589844 3.792969-3.160156-3.160156 3.800782-7.574219-2.578126-3.867187c-3.488281-5.222657-5.863281-10.980469-7.09375-17.109375l-.90625-4.554688-8.039062-2.679687v-4.46875l8.039062-2.683594.90625-4.550781c1.222657-6.128906 3.605469-11.878906 7.09375-17.113282l2.578126-3.863281-3.800782-7.574219 3.160156-3.160156 7.589844 3.792969 3.859375-2.578125c5.214844-3.488281 10.972657-5.871094 17.109375-7.09375l4.554688-.914062 2.679687-8.023438h4.46875l2.671875 8.03125 4.554688.914062c6.136718 1.222657 11.886718 3.613282 17.109375 7.09375l3.859375 2.578126 7.589844-3.792969 3.160156 3.160156-3.800782 7.574219 2.578126 3.867187c3.488281 5.222657 5.863281 10.980469 7.09375 17.109375l.90625 4.554688 8.039062 2.679687zm0 0"/><path d="m248 392c-17.648438 0-32 14.351562-32 32s14.351562 32 32 32 32-14.351562 32-32-14.351562-32-32-32zm0 48c-8.824219 0-16-7.175781-16-16s7.175781-16 16-16 16 7.175781 16 16-7.175781 16-16 16zm0 0"/></svg>