<svg height="512pt" viewBox="0 0 512 512" width="512pt" xmlns="http://www.w3.org/2000/svg"><path d="m512 256c0 141.386719-114.613281 256-256 256s-256-114.613281-256-256 114.613281-256 256-256 256 114.613281 256 256zm0 0" fill="#66baed"/><path d="m154.328125 0h325.601563c17.710937 0 32.070312 14.359375 32.070312 32.070312v307.078126c0 17.710937-14.359375 32.070312-32.070312 32.070312h-325.601563c-17.714844 0-32.070313-14.359375-32.070313-32.070312v-307.078126c0-17.710937 14.355469-32.070312 32.070313-32.070312zm0 0" fill="#3d4159"/><path d="m154.328125 350.320312c-6.164063 0-11.171875-5.007812-11.171875-11.167968v-307.082032c0-6.160156 5.011719-11.171874 11.171875-11.171874h325.601563c6.160156 0 11.171874 5.011718 11.171874 11.171874v307.078126c0 6.160156-5.011718 11.171874-11.171874 11.171874zm0 0" fill="#f2f0ec"/><g fill="#854f89"><path d="m407.1875 278.820312c2.632812-3.054687 7.246094-3.398437 10.300781-.761718l11.988281 10.332031 10.328126-8.984375c3.046874-2.648438 7.660156-2.324219 10.308593.71875 2.648438 3.046875 2.324219 7.660156-.71875 10.308594l-8.738281 7.597656 15.355469 13.234375c3.058593 2.636719 3.398437 7.25.761719 10.304687-1.441407 1.675782-3.484376 2.535157-5.535157 2.535157-1.6875 0-3.386719-.582031-4.765625-1.773438l-16.953125-14.613281-10.675781 9.28125c-1.382812 1.203125-3.089844 1.792969-4.792969 1.792969-2.039062 0-4.070312-.851563-5.515625-2.511719-2.648437-3.042969-2.324218-7.660156.71875-10.308594l9.082032-7.894531-10.386719-8.953125c-3.054688-2.636719-3.398438-7.25-.761719-10.304688zm0 0"/><path d="m375.835938 92.101562c2.78125 2.921876 2.671874 7.546876-.25 10.328126-1.414063 1.347656-3.226563 2.015624-5.039063 2.015624-1.929687 0-3.855469-.757812-5.292969-2.265624l-26.566406-27.894532c-1.488281-1.5625-2.207031-3.703125-1.96875-5.847656s1.414062-4.074219 3.207031-5.269531l31.882813-21.253907c3.355468-2.238281 7.894531-1.332031 10.128906 2.027344 2.238281 3.355469 1.332031 7.890625-2.023438 10.128906l-14.011718 9.339844c41.136718 1.78125 65.058594 21.714844 78.015625 38.574219 14.640625 19.054687 18.636719 38.058594 18.800781 38.859375.804688 3.953125-1.75 7.8125-5.703125 8.617188-.492187.101562-.980469.148437-1.464844.148437-3.402343 0-6.445312-2.386719-7.152343-5.847656-.03125-.164063-3.460938-16.46875-16.066407-32.871094-16.394531-21.332031-39.941406-32.390625-69.988281-32.957031zm0 0"/><path d="m434.132812 220.398438c-5.84375 5.234374-9.550781 12.808593-9.550781 21.253906 0 4.035156 3.273438 7.304687 7.308594 7.304687h42.503906c4.035157 0 7.308594-3.269531 7.308594-7.304687 0-8.445313-3.707031-16.019532-9.550781-21.253906 5.84375-5.230469 9.550781-12.808594 9.550781-21.253907 0-15.746093-12.8125-28.558593-28.558594-28.558593-15.75 0-28.5625 12.8125-28.5625 28.558593 0 8.445313 3.707031 16.023438 9.550781 21.253907zm19.007813 7.308593c5.015625 0 9.421875 2.65625 11.878906 6.640625h-23.753906c2.457031-3.984375 6.863281-6.640625 11.875-6.640625zm0-14.613281c-7.6875 0-13.945313-6.257812-13.945313-13.949219 0-7.6875 6.257813-13.945312 13.945313-13.945312 7.691406 0 13.949219 6.257812 13.949219 13.945312 0 7.691407-6.257813 13.949219-13.949219 13.949219zm0 0"/><path d="m234.226562 314.839844 26.300782-15.941406c2.328125-1.410157 5.246094-1.410157 7.574218 0l22.519532 13.644531 22.511718-13.644531c2.328126-1.410157 5.246094-1.410157 7.574219 0l22.511719 13.644531 22.511719-13.644531c3.449219-2.09375 7.941406-.988282 10.035156 2.460937 2.089844 3.449219.988281 7.941406-2.460937 10.035156l-26.300782 15.941407c-2.328125 1.40625-5.242187 1.40625-7.574218 0l-22.511719-13.648438-22.515625 13.648438c-2.324219 1.40625-5.242188 1.40625-7.570313 0l-22.519531-13.648438-22.515625 13.648438c-1.183594.714843-2.488281 1.058593-3.78125 1.058593-2.46875 0-4.878906-1.253906-6.253906-3.519531-2.089844-3.453125-.988281-7.945312 2.464843-10.035156zm0 0"/><path d="m336.078125 186.855469c0 7.628906 2.972656 14.800781 8.367187 20.195312l15.027344 15.027344c1.371094 1.371094 3.226563 2.140625 5.164063 2.140625s3.796875-.769531 5.167969-2.140625l15.027343-15.027344c5.394531-5.394531 8.363281-12.566406 8.363281-20.195312 0-7.628907-2.972656-14.800781-8.363281-20.191407-5.394531-5.394531-12.566406-8.367187-20.195312-8.367187-7.628907 0-14.796875 2.972656-20.191407 8.367187-5.394531 5.390626-8.367187 12.5625-8.367187 20.191407zm14.613281 0c0-3.722657 1.449219-7.226563 4.085938-9.859375 2.632812-2.636719 6.136718-4.085938 9.859375-4.085938 3.726562 0 7.230469 1.449219 9.863281 4.085938 2.632812 2.632812 4.085938 6.136718 4.085938 9.859375 0 3.726562-1.453126 7.226562-4.085938 9.863281l-9.863281 9.863281-9.859375-9.863281c-2.636719-2.636719-4.085938-6.136719-4.085938-9.863281zm0 0"/></g><path d="m306.890625 449.578125v29.246094c-26.855469 15.234375-56.75 25.757812-88.535156 30.425781-42.714844-6.300781-82.003907-23.144531-115.117188-47.804688-16.207031-12.066406-30.9375-26.015624-43.875-41.523437 11.683594-35.652344 43.875-62.023437 82.640625-65.160156 2.570313-.207031 5.164063-.3125 7.785156-.3125h61.953126c7.324218 0 14.449218.816406 21.292968 2.382812 42.296875 9.675781 73.855469 47.53125 73.855469 92.746094zm0 0" fill="#dd3033"/><path d="m306.890625 449.578125v57.363281c-16.449219 3.3125-33.457031 5.058594-50.886719 5.058594-9.082031 0-18.046875-.472656-26.886718-1.402344-46.882813-4.890625-89.996094-22.433594-125.878907-49.152344v-11.867187c0-52.539063 42.601563-95.128906 95.148438-95.128906h13.355469c23.238281 0 44.53125 8.328125 61.050781 22.164062v.007813c9.71875 8.128906 17.785156 18.160156 23.625 29.53125 6.699219 13.019531 10.472656 27.78125 10.472656 43.425781zm0 0" fill="#f74f4f"/><path d="m87.65625 249.53125c0 15.714844-11.480469 28.742188-26.511719 31.160156-1.640625.269532-3.332031.40625-5.054687.40625-17.4375 0-31.566406-14.128906-31.566406-31.566406 0-17.433594 14.128906-31.5625 31.566406-31.5625 1.722656 0 3.414062.136719 5.054687.40625 15.03125 2.417969 26.511719 15.445312 26.511719 31.15625zm0 0" fill="#d3a489"/><path d="m206.304688 388.773438-25.539063 40.960937-25.535156-40.960937" fill="#ffe152"/><path d="m203.226562 506.542969c-14.378906-3.007813-28.316406-7.230469-41.691406-12.546875l19.234375-74.917969zm0 0" fill="#ffe152"/><path d="m87.65625 249.53125c0 15.714844-11.480469 28.742188-26.511719 31.160156-2.726562-9.925781-4.1875-20.375-4.1875-31.160156 0-10.78125 1.457031-21.230469 4.1875-31.15625 15.03125 2.417969 26.511719 15.445312 26.511719 31.15625zm0 0" fill="#bf8e75"/><path d="m67.371094 249.53125c0 6.234375-5.050782 11.285156-11.28125 11.285156-6.230469 0-11.28125-5.050781-11.28125-11.285156 0-6.230469 5.050781-11.28125 11.28125-11.28125 6.230468 0 11.28125 5.050781 11.28125 11.28125zm0 0" fill="#bf8e75"/><path d="m180.761719 393.394531-42.832031 23.800781-13.027344-60.601562 26.609375-15.675781" fill="#dd3033"/><path d="m180.761719 393.394531 42.828125 23.800781 13.027344-60.601562-26.613282-15.675781" fill="#dd3033"/><path d="m273.871094 249.53125c0 15.714844 11.480468 28.742188 26.511718 31.160156 1.640626.269532 3.332032.40625 5.054688.40625 17.4375 0 31.566406-14.128906 31.566406-31.566406 0-17.433594-14.128906-31.5625-31.566406-31.5625-1.722656 0-3.414062.136719-5.054688.40625-15.03125 2.417969-26.511718 15.445312-26.511718 31.15625zm0 0" fill="#d3a489"/><path d="m273.871094 249.53125c0 15.714844 11.480468 28.742188 26.511718 31.160156 2.726563-9.925781 4.1875-20.375 4.1875-31.160156 0-10.78125-1.457031-21.230469-4.1875-31.15625-15.03125 2.417969-26.511718 15.445312-26.511718 31.15625zm0 0" fill="#bf8e75"/><path d="m316.71875 249.53125c0 6.234375-5.050781 11.285156-11.28125 11.285156s-11.28125-5.050781-11.28125-11.285156c0-6.230469 5.050781-11.28125 11.28125-11.28125s11.28125 5.050781 11.28125 11.28125zm0 0" fill="#bf8e75"/><path d="m298.207031 232.753906c0 58.445313-42.695312 106.925782-98.59375 115.929688-6.132812 1.003906-12.425781 1.515625-18.847656 1.515625-64.867187 0-117.445313-52.578125-117.445313-117.445313 0-30.6875 22.421876-76.761718 41.695313-97.683594 21.460937-23.296874 41.574219-19.757812 75.75-19.757812 6.421875 0 12.714844.507812 18.847656 1.515625 55.898438 9 98.59375 57.484375 98.59375 115.925781zm0 0" fill="#bf8e75"/><path d="m214.707031 317.800781v41.65625c0 15.25-10.054687 28.136719-23.902343 32.417969-3.171876.984375-6.550782 1.519531-10.042969 1.519531-18.746094 0-33.9375-15.195312-33.9375-33.9375v-41.65625zm0 0" fill="#bf8e75"/><path d="m214.707031 356.816406v2.640625c0 15.25-10.054687 28.136719-23.902343 32.417969-12.496094-3.839844-21.894532-14.707031-23.628907-28 2.269531.140625 4.546875.207031 6.839844.207031 6.421875 0 12.714844-.507812 18.847656-1.515625 7.554688-1.214844 14.855469-3.15625 21.84375-5.75zm0 0" fill="#d3a489"/><path d="m298.207031 232.753906c0 58.445313-42.695312 106.925782-98.59375 115.929688-55.898437-9.003906-98.59375-57.484375-98.59375-115.929688 0-35.984375 16.1875-68.195312 41.691407-89.742187 15.894531-13.445313 35.425781-22.726563 56.902343-26.183594 52.113281 8.386719 92.765625 51.105469 98.015625 104.21875.382813 3.851563.578125 7.761719.578125 11.707031zm0 0" fill="#d3a489"/><path d="m180.765625 295.824219c-9.835937 0-19.667969-2.464844-28.632813-7.394531-2.527343-1.386719-3.449218-4.5625-2.0625-7.09375 1.390626-2.527344 4.566407-3.449219 7.097657-2.0625 14.773437 8.125 32.417969 8.125 47.195312 0 2.527344-1.386719 5.703125-.464844 7.09375 2.0625 1.390625 2.53125.46875 5.707031-2.058593 7.09375-8.964844 4.929687-18.796876 7.394531-28.632813 7.394531zm0 0" fill="#bf8e75"/><path d="m155.753906 225.921875c0 7.355469-5.964844 13.320313-13.324218 13.320313-7.355469 0-13.320313-5.964844-13.320313-13.320313 0-7.359375 5.964844-13.324219 13.320313-13.324219 7.359374 0 13.324218 5.964844 13.324218 13.324219zm0 0" fill="#3d4159"/><path d="m232.421875 225.921875c0 7.355469-5.964844 13.320313-13.324219 13.320313-7.355468 0-13.320312-5.964844-13.320312-13.320313 0-7.359375 5.964844-13.324219 13.320312-13.324219 7.359375 0 13.324219 5.964844 13.324219 13.324219zm0 0" fill="#3d4159"/><path d="m153.035156 223.570312c0 3.152344-2.554687 5.707032-5.707031 5.707032s-5.707031-2.554688-5.707031-5.707032c0-3.152343 2.554687-5.710937 5.707031-5.710937s5.707031 2.558594 5.707031 5.710937zm0 0" fill="#fff"/><path d="m230.359375 223.570312c0 3.152344-2.554687 5.707032-5.707031 5.707032s-5.710938-2.554688-5.710938-5.707032c0-3.152343 2.558594-5.710937 5.710938-5.710937s5.707031 2.558594 5.707031 5.710937zm0 0" fill="#fff"/><path d="m194.085938 259.464844h-26.644532c-3.171875 0-5.746094-2.574219-5.746094-5.746094 0-3.175781 2.574219-5.75 5.746094-5.75h26.644532c3.175781 0 5.75 2.574219 5.75 5.75 0 3.171875-2.574219 5.746094-5.75 5.746094zm0 0" fill="#bf8e75"/><path d="m219.433594 446.453125h51.199218v15.671875h-51.199218zm0 0" fill="#dd3033"/><path d="m173.894531 81.761719c35.574219 2.542969 64.140625 31.28125 65.953125 67.460937l.335938 6.789063h20.460937l11.027344 73.300781 26.699219-8.265625-3.585938-71.824219c-1.894531-38.003906-33.324218-67.785156-71.363281-67.648437zm0 0" fill="#2a2f4f"/><path d="m292.519531 53.414062c28.332031 28.332032 28.332031 74.265626 0 102.59375-28.328125 28.332032-74.261719 28.332032-102.59375 0zm0 0" fill="#3d4159"/><path d="m189.929688 156.007812h-89.039063l-11.027344 73.304688-26.695312-8.265625 3.582031-71.828125c1.890625-37.996094 33.324219-67.785156 71.363281-67.644531l128.589844.484375 17 30.601562" fill="#3d4159"/><path d="m187.636719 81.761719c-35.574219 2.542969-64.140625 31.28125-65.953125 67.460937l-.335938 6.789063h-20.460937l-11.027344 73.300781-26.699219-8.265625 3.589844-71.824219c1.890625-38.003906 33.320312-67.785156 71.359375-67.648437zm0 0" fill="#2a2f4f"/><path d="m229.117188 510.597656c15.246093-29.265625 52.808593-107.6875 43.675781-133.976562 9.71875 8.128906 17.785156 18.160156 23.625 29.53125zm0 0" fill="#dd3033"/><path d="m379.992188 248.421875-128.460938 263.535156c-7.554688-.125-15.035156-.585937-22.414062-1.359375l139.527343-267.898437c1.609375-3.085938 5.390625-4.296875 8.492188-2.738281 3.105469 1.566406 4.378906 5.339843 2.855469 8.460937zm0 0" fill="#3d4159"/></svg>