<svg height="496pt" viewBox="0 0 496 496" width="496pt" xmlns="http://www.w3.org/2000/svg" xmlns:xlink="http://www.w3.org/1999/xlink"><linearGradient id="a" gradientUnits="userSpaceOnUse" x1="248" x2="248" y1="496" y2="0"><stop offset="0" stop-color="#9f2fff"/><stop offset="1" stop-color="#0bb1d3"/></linearGradient><path d="m256 210.703125c0-19.335937-13.816406-35.878906-32.847656-39.351563l-55.152344-10.03125v-15.441406c14.609375-11.742187 24-29.71875 24-49.878906v-32c0-35.289062-28.710938-64-64-64s-64 28.710938-64 64v32c0 20.160156 9.390625 38.144531 24 49.878906v15.441406l-55.160156 10.03125c-19.023438 3.472657-32.839844 20.015626-32.839844 39.351563v125.296875h256zm-128-194.703125c26.390625 0 47.863281 21.40625 47.992188 47.777344-8.792969-.5625-17-4.097656-23.289063-10.386719l-8.703125-8.703125-8.703125 8.703125c-6.839844 6.839844-15.9375 10.609375-25.617187 10.609375h-29.679688c0-26.472656 21.527344-48 48-48zm-48 80v-16h29.679688c12.753906 0 24.808593-4.535156 34.320312-12.847656 8.921875 7.800781 20.121094 12.121094 32 12.648437v16.199219c0 26.472656-21.527344 48-48 48s-48-21.527344-48-48zm72 59.289062v9.398438l-24 24-24-24v-9.398438c7.414062 3.015626 15.511719 4.710938 24 4.710938s16.585938-1.695312 24-4.710938zm-47.304688 164.710938h-40.695312v-80h-16v80h-32v-109.296875c0-11.597656 8.289062-21.527344 19.703125-23.613281l31.394531-5.707032 16.160156 64.648438 20.308594-16.246094 8.203125 12.304688zm-11.960937-102.03125-9.863281-39.449219 10.433594-1.894531 22.710937 22.710938zm28.027344 102.03125 6.542969-72h1.382812l6.542969 72zm10.957031-88h-7.4375l-8.167969-12.246094 11.886719-9.507812 11.886719 9.507812zm30.96875-55.375 10.433594 1.894531-9.863282 39.449219-23.289062-18.632812zm77.3125 143.375h-32v-80h-16v80h-40.695312l-7.082032-77.910156 8.203125-12.304688 20.308594 16.246094 16.160156-64.648438 31.394531 5.707032c11.421876 2.078125 19.710938 12.015625 19.710938 23.613281zm120-176v-17.472656c-9.289062-3.3125-16-12.113282-16-22.527344h16c0 4.414062 3.59375 8 8 8h8v-8c0-4.414062-3.59375-8-8-8-13.230469 0-24-10.769531-24-24v-24h16v-16h16v17.472656c9.289062 3.3125 16 12.113282 16 22.527344h-16c0-4.414062-3.59375-8-8-8h-8v8c0 4.414062 3.59375 8 8 8 13.230469 0 24 10.769531 24 24v24h-16v16zm96 48h-16v-32h-21.558594c22.671875-15.9375 37.558594-42.238281 37.558594-72 0-48.519531-39.480469-88-88-88s-88 39.480469-88 88c0 29.761719 14.886719 56.0625 37.558594 72h-21.558594v32h-16v160h-40v144h256v-144h-40zm-160-104c0-39.703125 32.304688-72 72-72s72 32.296875 72 72-32.304688 72-72 72-72-32.296875-72-72zm16 88h112v16h-112zm-16 32h144v144h-144zm48 272h-32v-80h32zm80 0h-32v-80h32zm56-112v112h-40v-96h-64v96h-16v-96h-64v96h-40v-112zm-168-32h112v-112h-112zm64-96h32v32h-32zm0 48h32v32h-32zm-48-48h32v32h-32zm0 48h32v32h-32zm-168 160h-160v-16h176v14.609375l35.703125-30.609375-35.703125-30.609375v14.609375h-176v-16h160v-33.390625l76.296875 65.390625-76.296875 65.390625zm-144-80h-16v-16h16zm16 0v-16h16v16zm32 0v-16h16v16zm-48 112h-16v-16h16zm16 0v-16h16v16zm32 0v-16h16v16zm0 0" fill="url(#a)"/></svg>