<svg xmlns="http://www.w3.org/2000/svg" xmlns:xlink="http://www.w3.org/1999/xlink" width="1920" height="1080" viewBox="0 0 1920 1080">
  <defs>
    <clipPath id="clip-iPhone_X_XS_1">
      <rect width="1920" height="1080"/>
    </clipPath>
  </defs>
  <g id="iPhone_X_XS_1" data-name="iPhone X/XS – 1" clip-path="url(#clip-iPhone_X_XS_1)">
    <rect width="1920" height="1080" fill="#fff"/>
    <g id="Group_2" data-name="Group 2" transform="translate(-97.76 52.261)" opacity="0.5">
      <path id="Path_2" data-name="Path 2" d="M-7.745-2.563S127.761,210.449,366.333,223.622,732.158,379.9,883.768,388s391.9-120.109,536.825-128.6,269.052,219.456,310.317,224.73" transform="translate(1841.816 372.049) rotate(173)" fill="none" stroke="rgba(57,80,255,0.5)" stroke-width="3"/>
      <path id="Path_4" data-name="Path 4" d="M0,0S90.113,134.982,222.911,191.173s265.5-17.432,408.14,25.2,248.3,126.111,349.244,138.505,300.524-112.548,506.452-94.29,275.993,162.056,317.259,167.32" transform="translate(1842.708 323.721) rotate(173)" fill="none" stroke="#fff58c" stroke-width="3"/>
      <path id="Path_5" data-name="Path 5" d="M27.058,434.421S142.7,290.269,371.94,275.264,732.682,106.114,884.292,98.013s418.433,68.519,563.359,77.01S1690.168,7.157,1731.433,1.883" transform="translate(104.23 -91.404) rotate(7)" fill="none" stroke="rgba(255,57,57,0.5)" stroke-width="3"/>
      <path id="Path_6" data-name="Path 6" d="M-35.891,398.742s120.105-78.16,252.9-134.351,271.859-8.263,414.5-50.895S879.817,87.385,980.758,74.991s264.169,81.421,470.1,63.163S1763.2,7.226,1804.469,1.962" transform="translate(96.557 -84.001) rotate(7)" fill="none" stroke="#afff8c" stroke-width="3"/>
    </g>
  </g>
</svg>
