<svg height="512pt" viewBox="0 0 512.00001 512" width="512pt" xmlns="http://www.w3.org/2000/svg"><path d="m511.996094 256c0 141.382812-114.613282 255.996094-255.996094 255.996094-141.386719 0-256-114.613282-256-255.996094 0-141.386719 114.613281-256 256-256 141.382812 0 255.996094 114.613281 255.996094 256zm0 0" fill="#66baed"/><path d="m512 159.859375c0 82.394531-66.792969 149.1875-149.1875 149.1875s-149.191406-66.792969-149.191406-149.1875 66.796875-149.1875 149.191406-149.1875 149.1875 66.792969 149.1875 149.1875zm0 0" fill="#f74f4f"/><path d="m478.542969 159.859375c0 63.917969-51.8125 115.730469-115.730469 115.730469s-115.734375-51.8125-115.734375-115.730469 51.816406-115.734375 115.734375-115.734375 115.730469 51.816406 115.730469 115.734375zm0 0" fill="#f2f0ec"/><path d="m444.644531 159.859375c0 45.195313-36.636719 81.835937-81.832031 81.835937s-81.835938-36.640624-81.835938-81.835937 36.640626-81.835937 81.835938-81.835937 81.832031 36.640624 81.832031 81.835937zm0 0" fill="#f74f4f"/><path d="m404.574219 159.859375c0 23.066406-18.695313 41.765625-41.761719 41.765625s-41.765625-18.699219-41.765625-41.765625 18.699219-41.765625 41.765625-41.765625 41.761719 18.699219 41.761719 41.765625zm0 0" fill="#f2f0ec"/><path d="m378.554688 159.859375c0 8.695313-7.046876 15.742187-15.742188 15.742187s-15.746094-7.046874-15.746094-15.742187 7.050782-15.746094 15.746094-15.746094 15.742188 7.050781 15.742188 15.746094zm0 0" fill="#f74f4f"/><path d="m503.085938 113.078125-27.621094-19.140625-3.160156-33.457031-47.082032 27.554687 2.074219 21.984375-69.761719 40.820313 10.554688 18.039062 69.761718-40.824218 18.148438 12.578124zm0 0" fill="#dd3033"/><path d="m503.085938 113.078125-27.621094-19.140625-3.160156-33.457031-47.082032 27.554687 2.074219 21.984375-69.761719 40.820313 10.554688 18.039062 69.761718-40.824218 18.148438 12.578124zm0 0" fill="#dd3033"/><path d="m474.578125 129.765625-18.578125 10.867187-17.617188-12.214843c-2.851562-6.867188-6.625-13.25-11.148437-19.019531v-.007813l-2.015625-21.359375 18.554688-10.855469c14.558593 14.242188 25.371093 32.320313 30.804687 52.589844zm0 0" fill="#d8d5d0"/><path d="m397.617188 67.183594 38.574218-38.574219 11.523438 31.566406-38.574219 38.578125zm0 0" fill="#e8c934"/><path d="m462.492188 74.953125-90.128907 90.132813c-4.082031 4.078124-10.695312 4.078124-14.777343 0-4.082032-4.082032-4.082032-10.699219 0-14.777344l90.128906-90.132813zm0 0" fill="#3d4159"/><path d="m448.097656 117.667969 38.574219-38.578125-31.566406-11.523438-38.574219 38.574219zm0 0" fill="#ffe152"/><path d="m298.527344 449.574219v29.246093c-25.546875 14.503907-53.84375 24.722657-83.902344 29.707032-.148438.019531-.285156.042968-.429688.0625-45.589843-7.480469-87.113281-27-121.207031-55.203125-14.554687-12.027344-27.753906-25.628907-39.339843-40.5625 11.273437-26.882813 34.542968-47.511719 63.121093-55.148438 1.484375-.398437 2.976563-.761719 4.492188-1.085937 4.035156-.878906 8.171875-1.484375 12.382812-1.828125 2.570313-.210938 5.160157-.316407 7.785157-.316407h61.949218c6.929688 0 13.679688.734376 20.179688 2.144532.375.074218.75.15625 1.117187.238281 1.097657.253906 2.195313.523437 3.269531.816406.03125.011719.054688.011719.085938.019531 10.707031 2.863282 20.675781 7.554688 29.539062 13.710938 24.753907 17.175781 40.957032 45.796875 40.957032 78.199219zm0 0" fill="#713775"/><path d="m298.527344 449.574219v58.898437c-13.832032 2.320313-28.03125 3.523438-42.527344 3.523438-61.941406 0-118.738281-21.996094-163.011719-58.609375v-3.8125c0-44.011719 29.882813-81.042969 70.476563-91.898438 1.484375-.398437 2.980468-.761719 4.496094-1.085937 4.03125-.878906 8.167968-1.484375 12.378906-1.828125 2.570312-.210938 5.164062-.316407 7.785156-.316407h15.253906c6.929688 0 13.679688.734376 20.179688 2.144532.375.074218.75.15625 1.117187.238281 1.097657.253906 2.195313.523437 3.269531.816406.03125.011719.054688.011719.085938.019531 10.707031 2.863282 20.675781 7.554688 29.539062 13.710938 24.753907 17.175781 40.957032 45.796875 40.957032 78.199219zm0 0" fill="#854f89"/><path d="m228.257812 356.589844-.226562 1.074218-31.671875 147.332032c-18.128906-4.316406-35.503906-10.566406-51.898437-18.527344l-27.691407-128.792969-.230469-1.085937zm0 0" fill="#f2f0ec"/><path d="m172.394531 393.390625-42.828125 23.804687-13.027344-60.605468 26.609376-15.671875" fill="#d8d5d0"/><path d="m172.394531 393.390625 42.832031 23.804687 13.027344-60.605468-26.613281-15.671875" fill="#d8d5d0"/><path d="m44.519531 331.511719v-143.476563c0-14.578125 2.433594-28.859375 7.230469-42.453125 17.953125-51.097656 66.445312-85.441406 120.652344-85.441406 6.714844 0 13.414062.523437 19.925781 1.550781 29.785156 4.652344 57.105469 19.855469 76.917969 42.804688 20.023437 23.195312 31.050781 52.863281 31.050781 83.539062v143.476563" fill="#3d4159"/><path d="m97.125 193.636719c0 50.75 29.71875 109.464843 46.039062 137.875h-98.648437v-143.472657c0-14.578124 2.433594-28.859374 7.230469-42.457031 17.847656-50.800781 65.890625-85.042969 119.722656-85.429687-39.316406.984375-74.34375 64.0625-74.34375 133.484375zm0 0" fill="#2a2f4f"/><path d="m206.351562 317.796875v41.65625c0 15.25-10.054687 28.140625-23.90625 32.421875-3.167968.980469-6.546874 1.515625-10.042968 1.515625-18.742188 0-33.9375-15.191406-33.9375-33.9375v-41.65625zm0 0" fill="#eab599"/><path d="m206.351562 356.816406v2.636719c0 15.25-10.054687 28.140625-23.90625 32.421875-12.496093-3.84375-21.890624-14.707031-23.625-28.003906 2.265626.140625 4.546876.210937 6.835938.210937 6.421875 0 12.71875-.511719 18.851562-1.515625 7.554688-1.214844 14.855469-3.160156 21.84375-5.75zm0 0" fill="#f6caae"/><path d="m79.300781 249.53125c0 15.710938-11.480469 28.742188-26.511719 31.160156-1.640624.265625-3.332031.402344-5.054687.402344-17.4375 0-31.566406-14.125-31.566406-31.5625s14.128906-31.566406 31.566406-31.566406c1.722656 0 3.414063.140625 5.054687.40625 15.03125 2.417968 26.511719 15.445312 26.511719 31.160156zm0 0" fill="#f6caae"/><g fill="#eab599"><path d="m79.300781 249.53125c0 15.710938-11.480469 28.742188-26.511719 31.160156-2.730468-9.929687-4.1875-20.378906-4.1875-31.160156 0-10.785156 1.457032-21.234375 4.1875-31.160156 15.03125 2.417968 26.511719 15.445312 26.511719 31.160156zm0 0"/><path d="m59.015625 249.53125c0 6.230469-5.050781 11.28125-11.28125 11.28125s-11.28125-5.050781-11.28125-11.28125 5.050781-11.28125 11.28125-11.28125 11.28125 5.050781 11.28125 11.28125zm0 0"/><path d="m253.457031 209.226562v108.503907c-16.773437 16.003906-38.277343 27.09375-62.203125 30.949219-.1875.03125-.386718.0625-.574218.09375-5.945313.949218-12.050782 1.417968-18.277344 1.417968-64.855469 0-117.433594-52.578125-117.433594-117.433594v-44.722656c0-5.722656.40625-11.355468 1.199219-16.863281 27.941406 20.09375 68.003906 18.109375 93.53125-6.019531 8.453125-7.980469 14.324219-17.492188 17.644531-27.574219 1.851562 17.660156 9.929688 34.847656 24.242188 48.378906 17.042968 16.089844 39.5625 23.855469 61.871093 23.269531zm0 0"/></g><path d="m253.457031 209.226562v108.503907c-16.773437 16.003906-38.277343 27.09375-62.203125 30.949219-.1875.03125-.386718.0625-.574218.09375-56.175782-8.777344-99.140626-57.386719-99.140626-116.015626v-44.722656c0-1.191406.019532-2.371094.0625-3.550781 20.710938 2.121094 42.214844-4.316406 58.097657-19.332031 8.453125-7.980469 14.324219-17.492188 17.644531-27.574219 1.851562 17.660156 9.929688 34.847656 24.242188 48.378906 17.042968 16.089844 39.5625 23.855469 61.871093 23.269531zm0 0" fill="#f6caae"/><path d="m235.476562 222.839844c0-10.773438-8.730468-19.503906-19.503906-19.503906-10.773437 0-19.507812 8.730468-19.507812 19.503906" fill="#eab599"/><path d="m148.359375 222.839844c0-10.773438-8.734375-19.503906-19.503906-19.503906-10.773438 0-19.507813 8.730468-19.507813 19.503906" fill="#eab599"/><path d="m142.175781 231.144531c0 7.355469-5.964843 13.320313-13.320312 13.320313-7.359375 0-13.324219-5.964844-13.324219-13.320313 0-7.359375 5.964844-13.324219 13.324219-13.324219 7.355469 0 13.320312 5.964844 13.320312 13.324219zm0 0" fill="#3d4159"/><path d="m229.292969 231.144531c0 7.355469-5.964844 13.320313-13.320313 13.320313-7.359375 0-13.324218-5.964844-13.324218-13.320313 0-7.359375 5.964843-13.324219 13.324218-13.324219 7.355469 0 13.320313 5.964844 13.320313 13.324219zm0 0" fill="#3d4159"/><path d="m185.734375 264.6875h-26.644531c-3.171875 0-5.746094-2.574219-5.746094-5.746094 0-3.175781 2.574219-5.75 5.746094-5.75h26.644531c3.175781 0 5.75 2.574219 5.75 5.75 0 3.171875-2.574219 5.746094-5.75 5.746094zm0 0" fill="#eab599"/><path d="m172.414062 301.046875c-9.835937 0-19.667968-2.464844-28.632812-7.394531-2.527344-1.386719-3.453125-4.5625-2.0625-7.09375 1.390625-2.527344 4.566406-3.449219 7.097656-2.0625 14.773438 8.125 32.417969 8.125 47.195313 0 2.527343-1.386719 5.703125-.464844 7.09375 2.0625 1.390625 2.53125.46875 5.707031-2.0625 7.09375-8.960938 4.929687-18.796875 7.394531-28.628907 7.394531zm0 0" fill="#eab599"/><path d="m139.460938 228.792969c0 3.152343-2.554688 5.707031-5.707032 5.707031s-5.710937-2.554688-5.710937-5.707031c0-3.152344 2.558593-5.707031 5.710937-5.707031s5.707032 2.554687 5.707032 5.707031zm0 0" fill="#fff"/><path d="m227.230469 228.792969c0 3.152343-2.554688 5.707031-5.707031 5.707031-3.152344 0-5.707032-2.554688-5.707032-5.707031 0-3.152344 2.554688-5.707031 5.707032-5.707031 3.152343 0 5.707031 2.554687 5.707031 5.707031zm0 0" fill="#fff"/><path d="m252.34375 263.59375c0 8.078125-6.550781 14.628906-14.628906 14.628906s-14.628906-6.550781-14.628906-14.628906c0-8.082031 6.550781-14.628906 14.628906-14.628906s14.628906 6.546875 14.628906 14.628906zm0 0" fill="#eab599"/><path d="m121.730469 263.59375c0 8.078125-6.550781 14.628906-14.628907 14.628906-8.078124 0-14.628906-6.550781-14.628906-14.628906 0-8.082031 6.550782-14.628906 14.628906-14.628906 8.078126 0 14.628907 6.546875 14.628907 14.628906zm0 0" fill="#eab599"/><path d="m278.992188 443.117188v31.542968c0 5.390625 3.332031 10.003906 8.046874 11.894532 1.476563.601562 3.085938.925781 4.777344.925781 7.078125 0 12.820313-5.742188 12.820313-12.820313v-31.542968c0-7.082032-5.742188-12.824219-12.820313-12.824219-1.691406 0-3.300781.328125-4.777344.921875-1.621093.648437-3.078124 1.617187-4.289062 2.835937-2.320312 2.320313-3.757812 5.523438-3.757812 9.066407zm0 0" fill="#eab599"/><path d="m278.992188 443.117188v55.816406c0 5.390625 3.332031-14.269532 8.046874-12.378906 4.714844-1.890626 8.046876-6.503907 8.046876-11.894532v-31.542968c0-5.390626-3.332032-10.007813-8.046876-11.902344-1.621093.648437-3.078124 1.617187-4.289062 2.835937-2.320312 2.320313-3.757812 5.523438-3.757812 9.066407zm0 0" fill="#f6caae"/><path d="m332.277344 485.109375v15.320313c-4.429688 1.390624-8.921875 2.652343-13.457032 3.792968-2.121093.542969-4.253906 1.042969-6.394531 1.523438-1.210937.273437-2.445312.542968-3.667969.796875-.367187.070312-.730468.15625-1.105468.226562-4.621094.964844-9.300782 1.777344-14.023438 2.476563-4.828125.710937-9.71875 1.285156-14.640625 1.726562v-25.863281c0-7.355469 2.988281-14.011719 7.804688-18.839844 2.519531-2.527343 5.550781-4.542969 8.914062-5.890625 3.074219-1.234375 6.417969-1.914062 9.925781-1.914062 14.714844 0 26.644532 11.933594 26.644532 26.644531zm0 0" fill="#eab599"/><path d="m312.425781 485.109375v20.636719c-1.210937.273437-2.445312.542968-3.667969.796875-.367187.070312-.730468.15625-1.105468.226562-4.621094.964844-9.300782 1.777344-14.023438 2.476563-4.828125.710937-9.71875 1.285156-14.640625 1.726562v-25.863281c0-7.355469 2.988281-14.011719 7.804688-18.839844 2.519531-2.527343 5.550781-4.542969 8.914062-5.890625 9.800781 3.9375 16.71875 13.53125 16.71875 24.730469zm0 0" fill="#f6caae"/></svg>